<svg width="1901" height="362" viewBox="0 0 1901 362" fill="none" xmlns="http://www.w3.org/2000/svg">
<path d="M143.95 114.266C87.0381 139.001 37.4556 178.045 0 227.622L0 81.2122C0 59.8255 8.47282 39.3148 23.5545 24.1921C38.6363 9.06946 59.0915 0.573639 80.4202 0.573639L90.0169 0.573639L143.95 114.266Z" fill="#FEAEBB"/>
<path d="M359.876 81.2122V91.9897C301.981 80.0366 242.047 82.4814 185.312 99.1105C171.218 103.277 157.403 108.339 143.95 114.266L90.1129 0.573639H279.455C300.784 0.573639 321.239 9.06946 336.321 24.1921C351.403 39.3148 359.876 59.8255 359.876 81.2122Z" fill="#FF6243"/>
<path d="M359.876 91.9897V280.74C359.876 302.131 351.404 322.646 336.324 337.777C321.244 352.907 300.789 361.414 279.456 361.426H80.4202C69.8553 361.426 59.3938 359.339 49.6337 355.284C39.8735 351.228 31.0059 345.284 23.5376 337.791C16.0692 330.298 10.1465 321.403 6.10786 311.613C2.06919 301.824 -0.00628937 291.333 1.43162e-05 280.74V227.815C37.4315 178.167 87.0161 139.055 143.95 114.266C157.376 108.408 171.159 103.41 185.216 99.3029C241.966 82.5941 301.934 80.0831 359.876 91.9897Z" fill="#230871"/>
<path d="M1806.05 284.685H1764.21V142.798H1806.05V160.888C1810.3 154.213 1816.16 148.719 1823.08 144.915C1830.73 140.921 1839.27 138.95 1847.89 139.189C1855.03 138.784 1862.17 139.962 1868.81 142.64C1875.44 145.318 1881.41 149.429 1886.28 154.682C1895.55 165.042 1900.19 179.204 1900.19 197.166V284.685H1858.35V206.837C1858.88 199.056 1856.54 191.353 1851.78 185.186C1849.4 182.575 1846.46 180.533 1843.19 179.209C1839.92 177.885 1836.39 177.313 1832.87 177.536C1829.24 177.425 1825.63 178.133 1822.31 179.607C1818.99 181.081 1816.04 183.283 1813.68 186.052C1808.49 192.695 1805.89 201.01 1806.38 209.435L1806.05 284.685Z" fill="#230871"/>
<path d="M165.351 84.7726H111.418V277.227H165.351V84.7726Z" fill="white"/>
<path d="M194.333 277.227H248.266L207.288 190.815H153.355L194.333 277.227Z" fill="white"/>
<path d="M214.918 195.001C233.442 195.001 248.458 179.944 248.458 161.37C248.458 142.795 233.442 127.738 214.918 127.738C196.394 127.738 181.377 142.795 181.377 161.37C181.377 179.944 196.394 195.001 214.918 195.001Z" fill="white"/>
<path d="M598.929 142.942L540.437 205.875L602.816 284.926H552.481L509.296 228.296L502.147 235.465V284.926H460.641V77.5555H502.195V193.51L549.218 142.942H598.929Z" fill="#230871"/>
<path d="M595.474 213.765C595.379 203.868 597.286 194.054 601.08 184.916C604.873 175.778 610.475 167.506 617.547 160.6C624.575 153.852 632.835 148.526 641.874 144.915C661.408 137.28 683.088 137.28 702.621 144.915C711.669 148.555 719.929 153.913 726.949 160.696C733.984 167.632 739.571 175.903 743.385 185.027C747.199 194.151 749.164 203.945 749.164 213.838C749.164 223.73 747.199 233.524 743.385 242.648C739.571 251.772 733.984 260.043 726.949 266.979C719.942 273.778 711.678 279.139 702.621 282.76C683.1 290.456 661.396 290.456 641.874 282.76C632.818 279.139 624.553 273.778 617.547 266.979C610.623 260.231 605.11 252.167 601.328 243.259C597.382 233.934 595.389 223.895 595.474 213.765ZM636.74 213.765C636.687 218.721 637.65 223.634 639.571 228.2C641.394 232.467 643.98 236.364 647.201 239.699C650.374 242.982 654.155 245.613 658.333 247.445C662.692 249.35 667.397 250.333 672.152 250.333C676.907 250.333 681.612 249.35 685.971 247.445C690.227 245.652 694.078 243.017 697.295 239.699C700.516 236.374 703.087 232.473 704.877 228.2C706.795 223.631 707.784 218.723 707.784 213.765C707.784 208.808 706.795 203.9 704.877 199.331C703.075 195.064 700.505 191.166 697.295 187.832C694.117 184.567 690.336 181.953 686.163 180.134C681.804 178.229 677.099 177.246 672.344 177.246C667.588 177.246 662.884 178.229 658.525 180.134C654.357 181.984 650.579 184.613 647.392 187.88C644.183 191.224 641.599 195.119 639.763 199.379C637.789 203.918 636.761 208.814 636.74 213.765Z" fill="#230871"/>
<path d="M811.256 284.685H769.414V142.798H811.256V160.6C815.05 154.086 820.475 148.679 826.994 144.915C834.321 140.834 842.608 138.807 850.986 139.045C859.819 138.793 868.546 141.026 876.177 145.492C883.285 149.83 888.96 156.173 892.492 163.727C896.921 156.232 903.243 150.042 910.822 145.781C919.132 141.149 928.523 138.824 938.028 139.045C954.295 139.045 966.818 144.097 975.551 154.249C984.284 164.401 988.747 178.306 988.747 195.578V284.685H946.905V205.394C947.354 198.046 945.289 190.764 941.051 184.753C939.056 182.257 936.496 180.273 933.584 178.968C930.671 177.663 927.49 177.073 924.305 177.247C920.961 177.147 917.64 177.84 914.614 179.27C911.587 180.7 908.94 182.826 906.887 185.475C902.123 191.987 899.688 199.92 899.977 207.992V284.685H858.184V205.971C858.656 198.461 856.649 191.005 852.474 184.753C850.504 182.252 847.963 180.264 845.064 178.957C842.166 177.651 838.996 177.064 835.823 177.247C832.381 177.143 828.962 177.861 825.851 179.342C822.739 180.822 820.023 183.023 817.926 185.763C813.121 192.466 810.751 200.616 811.208 208.858L811.256 284.685Z" fill="#230871"/>
<path d="M1016.43 345.453V142.798H1057.99V161.755C1062.86 154.455 1069.63 148.631 1077.56 144.915C1085.84 141.103 1094.84 139.129 1103.95 139.129C1113.06 139.129 1122.07 141.103 1130.35 144.915C1138.4 148.746 1145.62 154.124 1151.6 160.744C1157.84 167.623 1162.72 175.622 1166 184.32C1169.38 193.757 1171.01 203.738 1170.8 213.765C1170.89 223.754 1169.13 233.673 1165.61 243.019C1162.32 251.705 1157.44 259.7 1151.22 266.594C1145.28 273.227 1138.06 278.594 1130.01 282.376C1121.72 286.263 1112.67 288.236 1103.52 288.149C1094.5 288.216 1085.56 286.397 1077.28 282.809C1069.27 279.365 1062.46 273.623 1057.7 266.306V345.453H1016.43ZM1129.29 213.765C1129.35 208.805 1128.36 203.889 1126.41 199.331C1124.56 195.016 1121.94 191.071 1118.69 187.688C1115.41 184.339 1111.51 181.659 1107.22 179.797C1102.66 177.873 1097.77 176.882 1092.82 176.882C1087.88 176.882 1082.98 177.873 1078.43 179.797C1074.15 181.66 1070.27 184.34 1067.01 187.688C1063.74 191.07 1061.11 195.014 1059.23 199.331C1055.42 208.574 1055.42 218.956 1059.23 228.2C1061.09 232.525 1063.73 236.471 1067.01 239.843C1070.27 243.191 1074.15 245.871 1078.43 247.734C1082.98 249.658 1087.88 250.649 1092.82 250.649C1097.77 250.649 1102.66 249.658 1107.22 247.734C1111.51 245.872 1115.41 243.192 1118.69 239.843C1121.95 236.467 1124.57 232.521 1126.41 228.2C1128.37 223.644 1129.35 218.726 1129.29 213.765Z" fill="#230871"/>
<path d="M1336.77 142.798V284.685H1295.79V265.728C1290.93 272.937 1284.22 278.69 1276.36 282.376C1268.17 286.243 1259.21 288.216 1250.16 288.149C1241.01 288.236 1231.96 286.263 1223.67 282.376C1215.64 278.626 1208.43 273.31 1202.46 266.739C1196.29 259.86 1191.48 251.856 1188.31 243.163C1184.8 233.765 1183.04 223.8 1183.13 213.765C1183.03 203.761 1184.79 193.826 1188.31 184.464C1191.54 175.798 1196.34 167.805 1202.46 160.888C1208.36 154.2 1215.54 148.768 1223.58 144.915C1231.86 141.027 1240.92 139.054 1250.06 139.141C1259.14 139.148 1268.11 141.118 1276.36 144.915C1284.3 148.412 1291.1 154.081 1295.98 161.273V142.798H1336.77ZM1224.49 213.765C1224.44 218.721 1225.4 223.634 1227.32 228.2C1229.18 232.525 1231.81 236.471 1235.09 239.843C1238.35 243.191 1242.23 245.871 1246.51 247.734C1251.07 249.658 1255.96 250.649 1260.91 250.649C1265.85 250.649 1270.75 249.658 1275.3 247.734C1279.6 245.872 1283.49 243.192 1286.77 239.843C1290.03 236.467 1292.65 232.521 1294.5 228.2C1296.42 223.631 1297.4 218.723 1297.4 213.765C1297.4 208.808 1296.42 203.9 1294.5 199.331C1292.64 195.016 1290.02 191.071 1286.77 187.688C1283.49 184.339 1279.6 181.659 1275.3 179.797C1270.75 177.873 1265.85 176.882 1260.91 176.882C1255.96 176.882 1251.07 177.873 1246.51 179.797C1242.23 181.66 1238.35 184.34 1235.09 187.688C1231.83 191.07 1229.19 195.014 1227.32 199.331C1225.41 203.899 1224.44 208.811 1224.49 213.765Z" fill="#230871"/>
<path d="M1407.59 284.685H1365.8V142.798H1407.59V160.888C1411.84 154.213 1417.7 148.719 1424.63 144.915C1432.28 140.921 1440.82 138.95 1449.44 139.189C1456.51 138.829 1463.57 140.015 1470.15 142.665C1476.72 145.315 1482.63 149.366 1487.49 154.537C1496.7 164.882 1501.35 179.027 1501.35 197.022V284.685H1459.51V206.837C1460.04 199.056 1457.7 191.353 1452.94 185.186C1450.56 182.575 1447.62 180.533 1444.35 179.209C1441.08 177.885 1437.55 177.313 1434.03 177.536C1430.4 177.425 1426.79 178.133 1423.47 179.607C1420.15 181.081 1417.2 183.283 1414.84 186.052C1409.65 192.695 1407.06 201.01 1407.55 209.435L1407.59 284.685Z" fill="#230871"/>
<path d="M1574.38 101.612C1574.4 104.819 1573.76 107.995 1572.51 110.946C1571.33 113.856 1569.58 116.504 1567.38 118.741C1565.13 120.939 1562.51 122.73 1559.65 124.033C1556.64 125.388 1553.36 126.078 1550.06 126.054C1546.75 126.087 1543.47 125.397 1540.46 124.033C1537.59 122.753 1534.97 120.96 1532.73 118.741C1530.55 116.594 1528.79 114.046 1527.55 111.235C1526.33 108.18 1525.76 104.902 1525.87 101.612C1525.87 98.4071 1526.51 95.2336 1527.74 92.2783C1528.96 89.3855 1530.72 86.7551 1532.93 84.532C1535.16 82.3133 1537.78 80.52 1540.65 79.2395C1543.67 77.8757 1546.94 77.1862 1550.25 77.2188C1553.55 77.1953 1556.83 77.8844 1559.85 79.2395C1562.71 80.5431 1565.32 82.3338 1567.57 84.532C1569.77 86.7547 1571.51 89.3859 1572.7 92.2783C1573.88 95.2471 1574.45 98.4201 1574.38 101.612ZM1529.14 284.444V142.798H1570.98V284.685L1529.14 284.444Z" fill="#230871"/>
<path d="M1591.27 213.765C1591.18 203.868 1593.09 194.054 1596.88 184.916C1600.67 175.778 1606.28 167.506 1613.35 160.6C1620.38 153.852 1628.64 148.526 1637.67 144.915C1657.26 137.23 1679.02 137.23 1698.61 144.915C1707.53 148.575 1715.67 153.898 1722.61 160.6C1729.64 167.536 1735.23 175.807 1739.04 184.931C1742.86 194.055 1744.82 203.849 1744.82 213.741C1744.82 223.634 1742.86 233.428 1739.04 242.552C1735.23 251.676 1729.64 259.947 1722.61 266.883C1715.69 273.635 1707.54 278.993 1698.61 282.664C1679.09 290.36 1657.39 290.36 1637.87 282.664C1628.81 279.043 1620.55 273.682 1613.54 266.883C1606.62 260.135 1601.1 252.071 1597.32 243.163C1593.32 233.882 1591.26 223.876 1591.27 213.765ZM1632.54 213.765C1632.46 218.723 1633.43 223.641 1635.37 228.2C1637.2 232.454 1639.76 236.348 1642.95 239.699C1646.15 242.972 1649.95 245.601 1654.13 247.445C1658.49 249.35 1663.2 250.333 1667.95 250.333C1672.71 250.333 1677.41 249.35 1681.77 247.445C1686.02 245.639 1689.87 243.006 1693.1 239.699C1696.3 236.361 1698.87 232.464 1700.68 228.2C1702.6 223.631 1703.58 218.723 1703.58 213.765C1703.58 208.808 1702.6 203.9 1700.68 199.331C1698.86 195.072 1696.29 191.177 1693.1 187.832C1689.86 184.54 1686.01 181.909 1681.77 180.086C1677.41 178.181 1672.71 177.198 1667.95 177.198C1663.2 177.198 1658.49 178.181 1654.13 180.086C1649.96 181.947 1646.17 184.574 1642.95 187.832C1639.77 191.191 1637.21 195.083 1635.37 199.331C1633.43 203.892 1632.47 208.809 1632.54 213.765Z" fill="#230871"/>
</svg>
